<svg xmlns="http://www.w3.org/2000/svg" width="680" height="380" font-family="sans-serif" font-size="13">
<rect width="680" height="380" fill="white"/>
<text x="340.0" y="22" text-anchor="middle" font-size="15" font-weight="bold">Latency (lower is better) — Apple M4, 1 thread, AC — 10 trials (median, IQR whiskers)</text>
<line x1="70" y1="320" x2="660" y2="320" stroke="#333"/>
<line x1="70" y1="320" x2="70" y2="40" stroke="#333"/>
<line x1="70" y1="320.0" x2="660" y2="320.0" stroke="#eee"/>
<text x="62" y="324.0" text-anchor="end" fill="#555">0</text>
<line x1="70" y1="264.0" x2="660" y2="264.0" stroke="#eee"/>
<text x="62" y="268.0" text-anchor="end" fill="#555">6</text>
<line x1="70" y1="208.0" x2="660" y2="208.0" stroke="#eee"/>
<text x="62" y="212.0" text-anchor="end" fill="#555">13</text>
<line x1="70" y1="152.0" x2="660" y2="152.0" stroke="#eee"/>
<text x="62" y="156.0" text-anchor="end" fill="#555">19</text>
<line x1="70" y1="96.0" x2="660" y2="96.0" stroke="#eee"/>
<text x="62" y="100.0" text-anchor="end" fill="#555">25</text>
<line x1="70" y1="40.0" x2="660" y2="40.0" stroke="#eee"/>
<text x="62" y="44.0" text-anchor="end" fill="#555">31</text>
<text x="18" y="180" text-anchor="middle" fill="#555" transform="rotate(-90 18 180)">p50 latency (ms)</text>
<text x="168.3" y="340" text-anchor="middle" fill="#555">short</text>
<text x="365.0" y="340" text-anchor="middle" fill="#555">medium</text>
<text x="561.7" y="340" text-anchor="middle" fill="#555">long</text>
<rect x="105.4" y="260.2" width="62.9" height="59.8" fill="#2c7fb8"/>
<line x1="136.9" y1="261.5" x2="136.9" y2="257.8" stroke="#333"/>
<rect x="168.3" y="235.4" width="62.9" height="84.6" fill="#de8a26"/>
<line x1="199.8" y1="237.7" x2="199.8" y2="233.9" stroke="#333"/>
<rect x="302.1" y="242.7" width="62.9" height="77.3" fill="#2c7fb8"/>
<line x1="333.5" y1="243.0" x2="333.5" y2="241.0" stroke="#333"/>
<rect x="365.0" y="218.6" width="62.9" height="101.4" fill="#de8a26"/>
<line x1="396.5" y1="223.8" x2="396.5" y2="216.4" stroke="#333"/>
<rect x="498.7" y="80.8" width="62.9" height="239.2" fill="#2c7fb8"/>
<line x1="530.2" y1="84.0" x2="530.2" y2="72.3" stroke="#333"/>
<rect x="561.7" y="91.1" width="62.9" height="228.9" fill="#de8a26"/>
<line x1="593.1" y1="95.8" x2="593.1" y2="76.5" stroke="#333"/>
<rect x="430" y="36" width="12" height="12" fill="#2c7fb8"/><text x="446" y="47">candle-cpu</text><rect x="540" y="36" width="12" height="12" fill="#de8a26"/><text x="556" y="47">burn-ndarray</text>
</svg>
