<svg xmlns="http://www.w3.org/2000/svg" width="680" height="380" font-family="sans-serif" font-size="13">
<rect width="680" height="380" fill="white"/>
<text x="340.0" y="22" text-anchor="middle" font-size="15" font-weight="bold">Candle speedup vs Burn (faded = tie) — Apple M4, 1 thread, AC — 10 trials (median, IQR whiskers)</text>
<line x1="70" y1="320" x2="660" y2="320" stroke="#333"/>
<line x1="70" y1="320" x2="70" y2="40" stroke="#333"/>
<line x1="70" y1="320.0" x2="660" y2="320.0" stroke="#eee"/>
<text x="62" y="324.0" text-anchor="end" fill="#555">0</text>
<line x1="70" y1="264.0" x2="660" y2="264.0" stroke="#eee"/>
<text x="62" y="268.0" text-anchor="end" fill="#555">0</text>
<line x1="70" y1="208.0" x2="660" y2="208.0" stroke="#eee"/>
<text x="62" y="212.0" text-anchor="end" fill="#555">1</text>
<line x1="70" y1="152.0" x2="660" y2="152.0" stroke="#eee"/>
<text x="62" y="156.0" text-anchor="end" fill="#555">1</text>
<line x1="70" y1="96.0" x2="660" y2="96.0" stroke="#eee"/>
<text x="62" y="100.0" text-anchor="end" fill="#555">2</text>
<line x1="70" y1="40.0" x2="660" y2="40.0" stroke="#eee"/>
<text x="62" y="44.0" text-anchor="end" fill="#555">2</text>
<text x="18" y="180" text-anchor="middle" fill="#555" transform="rotate(-90 18 180)">Candle speedup (x)</text>
<text x="106.9" y="340" text-anchor="middle" fill="#555">short</text>
<text x="180.6" y="340" text-anchor="middle" fill="#555">medium</text>
<text x="254.4" y="340" text-anchor="middle" fill="#555">long</text>
<text x="328.1" y="340" text-anchor="middle" fill="#555">thr b=1</text>
<text x="401.9" y="340" text-anchor="middle" fill="#555">thr b=8</text>
<text x="475.6" y="340" text-anchor="middle" fill="#555">thr b=16</text>
<text x="549.4" y="340" text-anchor="middle" fill="#555">thr b=32</text>
<text x="623.1" y="340" text-anchor="middle" fill="#555">thr b=64</text>
<line x1="70" y1="180.0" x2="660" y2="180.0" stroke="#c00" stroke-dasharray="4"/>
<text x="658" y="176.0" text-anchor="end" fill="#c00">1.0 (tie)</text>
<rect x="88.4" y="122.9" width="36.9" height="197.1" fill="#2c7fb8" opacity="1"/>
<rect x="162.2" y="140.8" width="36.9" height="179.2" fill="#2c7fb8" opacity="1"/>
<rect x="235.9" y="184.1" width="36.9" height="135.9" fill="#de8a26" opacity="1"/>
<rect x="309.7" y="144.9" width="36.9" height="175.1" fill="#2c7fb8" opacity="1"/>
<rect x="383.4" y="150.4" width="36.9" height="169.6" fill="#2c7fb8" opacity="1"/>
<rect x="457.2" y="137.0" width="36.9" height="183.0" fill="#2c7fb8" opacity="1"/>
<rect x="530.9" y="141.9" width="36.9" height="178.1" fill="#2c7fb8" opacity="1"/>
<rect x="604.7" y="140.2" width="36.9" height="179.8" fill="#2c7fb8" opacity="1"/>
</svg>
